<?xml version="1.0" encoding="UTF-8" standalone="no"?>
<svg
   xmlns:dc="http://purl.org/dc/elements/1.1/"
   xmlns:cc="http://creativecommons.org/ns#"
   xmlns:rdf="http://www.w3.org/1999/02/22-rdf-syntax-ns#"
   xmlns:svg="http://www.w3.org/2000/svg"
   xmlns="http://www.w3.org/2000/svg"
   id="svg4190"
   version="1.1"
   width="600"
   height="200"
   viewBox="0 0 600 200">
  <metadata
     id="metadata4196">
    <rdf:RDF>
      <cc:Work
         rdf:about="">
        <dc:format>image/svg+xml</dc:format>
        <dc:type
           rdf:resource="http://purl.org/dc/dcmitype/StillImage" />
        <dc:title></dc:title>
      </cc:Work>
    </rdf:RDF>
  </metadata>
  <defs
     id="defs4194" />
  <g
     transform="matrix(0.50062578,0,0,0.50062578,10.112328,-0.37516)"
     id="g4208">
    <g
       transform="matrix(1.0723206,0,0,1.0723206,-2.816467,-19.326976)"
       id="g4866">
      <path
         id="path4182"
         d="m 554.04917,98.241165 c -6.54451,0 -11.10734,1.883605 -15.40901,4.341715 a 11.202186,11.202186 0 0 0 -3.54842,3.20352 l -18.9899,26.51283 a 11.202186,11.202186 0 0 0 -1.2234,10.83397 c -5.00465,2.87691 -9.64219,6.31769 -13.70477,10.48909 -13.22675,13.581 -20.30866,33.3771 -20.30866,57.21316 0,23.43822 6.6066,42.5996 19.74869,55.49068 13.14209,12.89107 31.75796,18.58819 52.7193,18.58819 10.90486,0 19.39798,-1.58572 25.58564,-3.096 4.5322,-1.10621 5.97188,-1.44862 7.37076,-1.79958 a 11.202186,11.202186 0 0 0 7.52901,2.92559 l 1.97,0 a 11.202186,11.202186 0 0 0 11.19511,-10.85022 l 0.0122,-0.41592 c 2.13848,2.96697 4.55998,5.60633 7.41337,7.39917 7.94878,4.9944 16.52789,5.83696 23.91794,5.83696 7.65672,0 14.63539,-1.45931 20.31676,-5.40482 0.27041,-0.18779 0.47046,-0.43044 0.73038,-0.62691 0.65737,0.43959 1.25703,0.97039 1.94971,1.34512 6.49468,3.51352 13.91774,4.68661 22.32531,4.68661 7.55755,0 15.43388,-1.53904 21.59289,-6.16766 l 0,21.47725 a 11.202186,11.202186 0 0 0 -9.85405,11.1099 l 0,3.22383 a 11.202186,11.202186 0 0 0 11.20121,11.20119 l 66.28205,0 a 11.202186,11.202186 0 0 0 11.2012,-11.20119 l 0,-3.22383 a 11.202186,11.202186 0 0 0 -11.2012,-11.20119 l -11.90724,0 0,-15.88984 c 2.72131,0.41459 5.55097,0.67154 8.68341,0.67154 14.26791,0 27.4739,-4.46234 36.10313,-14.56095 1.98389,-2.32169 3.65965,-4.86912 5.11064,-7.58582 1.50247,2.23344 3.13771,4.38633 5.04572,6.35635 10.01477,10.34019 25.02981,15.79042 43.11275,15.79042 14.4118,0 26.00839,-3.51718 34.40094,-10.28417 a 11.202186,11.202186 0 0 0 10.85427,8.49271 l 53.20418,0 a 11.202186,11.202186 0 0 0 11.17888,-10.56415 c 9.9441,8.33876 23.4911,12.35561 39.05313,12.35561 17.8522,0 32.8161,-4.81108 42.8145,-15.29337 9.9984,-10.48228 13.8894,-25.16716 13.8894,-41.58706 0,-16.35424 -4.2415,-30.66708 -14.3073,-40.48745 -10.0658,-9.82036 -24.5177,-13.88738 -41.3213,-13.88738 -16.41522,0 -31.14789,4.49657 -41.69063,14.41894 -3.36575,3.1677 -6.14387,6.87182 -8.44807,10.93339 l 0,-61.44328 a 11.202186,11.202186 0 0 0 -11.2012,-11.2012 l -43.88777,0 a 11.202186,11.202186 0 0 0 -11.20121,11.2012 l 0,3.22382 a 11.202186,11.202186 0 0 0 10.56821,11.17889 l 0,43.18782 c -1.50042,-2.69004 -3.27224,-5.21387 -5.40076,-7.50669 -9.06027,-9.75967 -22.74451,-13.99289 -38.68584,-13.99289 -14.4917,0 -28.77323,3.95546 -39.69213,13.41872 -3.03032,2.62634 -5.69053,5.70665 -8.00985,9.11962 -1.27791,-2.56014 -2.67421,-5.02265 -4.36808,-7.24497 -7.70707,-10.11147 -19.97851,-15.29337 -32.64396,-15.29337 -6.71879,0 -12.64582,1.63562 -17.69956,4.27273 a 11.202186,11.202186 0 0 0 -7.02181,-2.48127 l -42.4554,0 a 11.202186,11.202186 0 0 0 -11.2012,11.20121 l 0,2.8992 c -1.4268,-2.13109 -3.06121,-4.1259 -5.04978,-5.88768 -9.27176,-8.2143 -21.67595,-10.00419 -36.78481,-10.00419 -13.25238,0 -24.32335,1.62796 -33.43724,6.86356 -9.11389,5.23559 -15.20613,15.60373 -15.20613,26.37283 0,6.21806 1.60798,13.11275 6.57952,18.39951 0.51476,0.5474 1.15704,0.93447 1.72248,1.42019 -1.94141,1.40312 -3.7563,3.01725 -5.34395,4.88137 a 11.202186,11.202186 0 0 0 -11.18497,-11.00237 l -3.22382,0 a 11.202186,11.202186 0 0 0 -10.2862,6.77023 c -4.73973,11.00295 -9.80321,19.64926 -14.46966,24.85728 -4.66644,5.20803 -8.04693,6.70733 -11.43045,6.70733 -5.68694,0 -8.33112,-1.75138 -11.85246,-8.66312 -3.52134,-6.91175 -5.96681,-19.00965 -5.96681,-34.41514 l 0,-14.15113 c 0,-17.56704 2.57808,-29.42424 5.7761,-35.40723 3.19802,-5.983 5.14379,-6.95486 10.78935,-6.95486 4.01267,0 7.20663,1.54846 11.7226,6.61807 4.51598,5.06961 9.3606,13.5061 14.05984,24.01533 a 11.202186,11.202186 0 0 0 10.22533,6.6282 l 3.22382,0 a 11.202186,11.202186 0 0 0 11.19309,-11.61306 l -1.43236,-38.87452 a 11.202186,11.202186 0 0 0 -11.19309,-10.78934 l -1.97203,0 a 11.202186,11.202186 0 0 0 -1.68799,0.14202 11.202186,11.202186 0 0 0 -1.05296,-2.38186 L 576.2913,111.01066 c -1.87791,-3.25504 -4.59085,-6.79719 -8.63675,-9.2799 -4.04591,-2.48271 -8.8784,-3.489595 -13.60538,-3.489595 z M 700.14562,198.76185 a 11.202186,11.202186 0 0 0 5.09643,2.17694 l 0,33.8714 -0.60053,-0.0406 a 11.202186,11.202186 0 0 0 -1.90913,0.0487 l 0,-16.10084 c 0,-7.22921 -0.70585,-13.98062 -2.58677,-19.95563 z m 202.78008,36.93495 0,0.7953 a 11.202186,11.202186 0 0 0 -0.87848,-0.39562 11.202186,11.202186 0 0 0 0.87848,-0.39968 z m -44.07848,1.20918 29.2132,0 a 11.202186,11.202186 0 0 0 -4.16317,5.96276 c -3.04012,10.64042 -6.87123,14.09026 -15.38466,14.09026 -5.6089,0 -5.45303,-0.38851 -7.06643,-3.61539 -1.34833,-2.69673 -2.27405,-8.85775 -2.59894,-16.43763 z"
         style="font-style:normal;font-variant:normal;font-weight:normal;font-stretch:normal;font-size:medium;line-height:125%;font-family:'Abril Fatface';-inkscape-font-specification:'Abril Fatface';letter-spacing:0px;word-spacing:0px;fill:#ffffff;fill-opacity:1;stroke:none;stroke-width:1px;stroke-linecap:butt;stroke-linejoin:miter;stroke-opacity:1" />
      <path
         d="m 1018.8179,236.63181 c 0,23.28826 -0.5374,33.85755 -10.7484,33.85755 -10.92756,0 -11.28584,-13.43554 -11.28584,-34.21583 l 0,-13.97295 c 0,-20.24287 0.53742,-34.21582 11.46494,-34.21582 10.0319,0 10.5693,13.97295 10.5693,33.32011 l 0,15.22694 z m -56.42921,-6.98647 c 0,27.94591 15.22694,44.06854 45.32251,44.06854 31.887,0 45.5017,-16.30178 45.5017,-45.68081 0,-29.02074 -14.3312,-43.17284 -44.4268,-43.17284 -28.84164,0 -46.39741,15.40607 -46.39741,44.78511 z m -58.83084,-92.07819 0,3.22453 10.56929,0 0,127.90627 -9.85273,0 0,3.22453 53.20471,0 0,-3.22453 -10.03187,0 0,-131.1308 -43.8894,0 z m -90.75704,91.89905 c 0,25.97536 14.33123,44.24768 46.21824,44.24768 25.43794,0 34.75324,-11.82326 38.87347,-27.22934 l -3.22452,-0.53742 c -3.94109,13.79381 -12.89812,22.21342 -26.15451,22.21342 -17.37663,0 -21.13857,-14.33125 -21.13857,-35.46982 l 0,-6.98648 50.5176,0 c 1.07485,-26.69191 -10.92757,-40.84401 -39.05262,-40.84401 -24.90052,0 -46.03909,13.61467 -46.03909,44.60597 z m 34.75324,-7.34476 0,-8.77788 c 0,-18.98888 3.40367,-25.07967 9.67359,-25.07967 7.34476,0 8.77788,6.26992 8.77788,25.07967 l 0,8.77788 -18.45147,0 z m -83.81813,-29.55818 c 6.09078,0 8.24046,5.91164 8.24046,31.17044 l 0,9.31531 c 0,24.90052 -1.7914,35.46981 -10.56928,35.46981 -7.88218,0 -11.64413,-8.77789 -11.64413,-18.45147 l 0,-32.7827 c 0,-15.58522 6.6282,-24.72139 13.97295,-24.72139 z m -14.33123,-5.91163 -42.45628,0 0,3.22453 9.49444,0 0,121.45722 -9.85272,0 0,3.22453 66.28196,0 0,-3.22453 -23.10912,0 0,-46.39737 c 3.22453,5.55335 7.70304,8.77787 19.88459,8.77787 24.3631,0 36.90293,-13.61467 36.90293,-44.24768 0,-30.45387 -12.36069,-44.60597 -32.42441,-44.60597 -13.97296,0 -20.7803,6.98647 -24.72139,15.9435 l 0,-14.1521 z m -96.38875,43.17285 c -25.61708,0 -41.2023,4.12023 -41.2023,22.21341 0,17.91405 13.97296,21.67599 26.51279,21.67599 12.53983,0 17.73491,-4.65765 20.60115,-13.25639 2.14969,8.77789 10.211,13.25639 24.72138,13.25639 15.40608,0 22.03428,-6.09077 22.92997,-27.58762 l -2.6871,-0.17914 c -0.8957,15.04779 -3.94109,18.45146 -7.16561,18.45146 -3.0454,0 -5.19508,-1.97055 -5.19508,-9.3153 l 0,-36.36551 c 0,-25.97536 -9.49445,-33.85754 -37.61949,-33.85754 -24.3631,0 -37.44035,6.98647 -37.44035,22.03428 0,8.77787 4.29937,14.86864 15.40608,14.86864 8.95702,0 15.76435,-5.55334 15.76435,-13.97295 0,-3.40366 -0.53742,-5.73249 -1.43312,-8.06131 l -4.47852,0 c -0.71656,-1.97055 -1.07484,-3.76196 -1.07484,-5.19508 0,-5.73249 5.19508,-7.16561 8.41961,-7.16561 7.16561,0 9.13616,5.91162 9.13616,28.66246 l 0,13.79382 -5.19508,0 z m -2.50796,36.72379 c -3.40367,0 -4.65765,-1.79141 -4.65765,-14.68952 l 0,-2.86624 c 0,-10.92757 3.58281,-16.30179 11.1067,-16.30179 l 1.25399,0 0,16.66007 c 0,11.46498 -4.29937,17.19748 -7.70304,17.19748 z M 556.37807,148.13644 c 15.40609,0 26.15451,15.22694 36.00723,37.26121 l 3.22453,0 -1.43313,-38.87348 -1.97054,0 c -1.25398,2.32883 -1.97055,3.58281 -4.83679,3.58281 -6.26991,0 -14.86865,-5.55335 -33.49926,-5.55335 -36.72379,0 -61.80345,22.92997 -61.80345,66.28196 0,42.81457 23.28825,62.87829 61.26603,62.87829 19.70545,0 29.55817,-5.55334 35.64895,-5.55334 2.86624,0 3.58281,1.25397 4.83678,3.5828 l 1.97055,0 1.25398,-39.94831 -3.22453,0 c -10.03186,23.28825 -21.67598,38.33605 -36.18636,38.33605 -19.52631,0 -29.02076,-21.31772 -29.02076,-54.27955 l 0,-14.1521 c 0,-37.08207 9.67359,-53.56299 27.76677,-53.56299 z m -31.17043,-9.3153 1.43312,1.7914 26.1545,-12.18155 25.43795,12.18155 1.61226,-1.7914 -13.25639,-22.21342 c -2.68711,-4.65765 -5.91164,-7.16562 -12.53983,-7.16562 -3.22453,0 -7.34476,1.43312 -9.85273,2.86625 l -18.98888,26.51279 z"
         style="font-style:normal;font-variant:normal;font-weight:normal;font-stretch:normal;font-size:medium;line-height:125%;font-family:'Abril Fatface';-inkscape-font-specification:'Abril Fatface';letter-spacing:0px;word-spacing:0px;fill:#042f00;fill-opacity:1;stroke:none;stroke-width:1px;stroke-linecap:butt;stroke-linejoin:miter;stroke-opacity:1"
         id="path4150" />
    </g>
    <g
       id="g4888"
       transform="translate(31.485625,0.49938388)">
      <circle
         r="199.75"
         style="opacity:1;fill:#ffffff;fill-opacity:1;stroke:none;stroke-width:0.5;stroke-miterlimit:4;stroke-dasharray:none;stroke-opacity:1"
         id="circle4931"
         cx="200"
         cy="200" />
      <circle
         r="190.21173"
         cy="200"
         cx="200"
         id="path4913"
         style="opacity:1;fill:#042f00;fill-opacity:1;stroke:none;stroke-width:0.5;stroke-miterlimit:4;stroke-dasharray:none;stroke-opacity:1" />
      <g
         id="g4216"
         transform="matrix(1.0190755,0,0,1.0190755,-3.8200503,-13.350983)">
        <g
           transform="matrix(1.2800231,0,0,1.2800231,-61.258012,-76.659715)"
           id="g4204">
          <circle
             r="19.011171"
             cy="253.82704"
             cx="237.94394"
             id="path4202"
             style="opacity:1;fill:#ffffff;fill-opacity:1;stroke:none;stroke-width:0.49999997;stroke-miterlimit:4;stroke-dasharray:none;stroke-opacity:1" />
          <circle
             style="opacity:1;fill:#ffffff;fill-opacity:1;stroke:none;stroke-width:0.5;stroke-miterlimit:4;stroke-dasharray:none;stroke-opacity:1"
             id="circle4204"
             cx="251.35378"
             cy="269.29782"
             r="4.2292962" />
        </g>
        <path
           style="fill:#ffffff;fill-opacity:1"
           d="m 200.85691,56.872771 c 25.99605,0.05693 51.75429,2.94546 63.86331,8.637389 12.47174,5.862415 14.80277,10.870365 13.46125,30.759426 -1.77348,26.293284 -2.32005,47.365604 -3.26063,65.852984 -2.68951,9.4294 -46.40552,11.76518 -44.95445,12.67327 2.34786,1.4693 44.72164,-1.89192 44.77117,-8.12396 -0.52925,9.57032 -1.19843,18.11228 -2.25016,25.6937 -3.57486,25.7695 -90.55328,20.08992 -93.61499,23.32929 -4.78236,5.05985 119.50978,7.09427 109.7509,-24.41899 23.79939,0.0661 31.00429,8.28552 31.05935,17.20213 -8.7e-4,16.31083 -53.46836,36.75701 -119.42365,36.75707 -65.95529,-5e-5 -119.422738,-20.44624 -119.423647,-36.75707 0.0051,-8.77284 15.451718,-15.45318 42.934977,-15.45318 1.42036,1.91215 4.43903,16.55742 4.2599,-0.50755 -0.33191,-31.61814 -3.91073,-61.25098 -5.55503,-93.719216 -1.18056,-23.311253 -0.004,-27.914006 13.09628,-33.569961 13.05661,-5.636824 39.28936,-8.412258 65.28542,-8.355332 z"
           id="path4200" />
        <g
           id="g4224"
           transform="matrix(1.0105917,0,0,1.0576949,-2.2718794,-21.226234)">
          <path
             style="opacity:1;fill:#ffffff;fill-opacity:1;stroke:none;stroke-width:0.5;stroke-miterlimit:4;stroke-dasharray:none;stroke-opacity:1"
             d="m 200,362.2618 c -13.7322,-10e-6 -26.22509,7.56122 -34.62283,2.27401 -8.39774,-5.28721 -12.59427,-35.84942 -9.08282,-39.41957 3.94305,-4.00896 26.143,6.7465 37.15543,-0.062 4.40868,-2.72569 7.2917,-2.63638 11.49704,6.6e-4 10.86916,6.8157 34.89775,-3.64587 38.75883,0.0614 3.6932,3.54608 -0.68508,34.13237 -9.08282,39.41958 C 226.22509,369.82309 213.7322,362.2618 200,362.26179 Z"
             id="path4163" />
          <path
             style="opacity:1;fill:#ffffff;fill-opacity:1;stroke:none;stroke-width:0.5;stroke-miterlimit:4;stroke-dasharray:none;stroke-opacity:1"
             d="m 189.87388,297.1025 c 6.75292,1.39446 13.50583,1.45238 20.25875,0 9.72668,0 32.65466,12.56701 44.5181,15.70963 11.86342,3.14263 2.12524,9.1583 -13.53268,6.2935 -15.65792,-2.86479 -65.22436,-4.15568 -81.93801,-0.0152 -16.71365,4.14049 -25.80909,-6.01783 -13.73099,-6.24234 12.07809,-0.22451 33.86743,-14.83429 44.42483,-15.74564 z"
             id="rect4187" />
        </g>
      </g>
    </g>
  </g>
</svg>
