<?xml version="1.0" encoding="UTF-8" standalone="no"?>
<svg
   xmlns:dc="http://purl.org/dc/elements/1.1/"
   xmlns:cc="http://creativecommons.org/ns#"
   xmlns:rdf="http://www.w3.org/1999/02/22-rdf-syntax-ns#"
   xmlns:svg="http://www.w3.org/2000/svg"
   xmlns="http://www.w3.org/2000/svg"
   xmlns:sodipodi="http://sodipodi.sourceforge.net/DTD/sodipodi-0.dtd"
   xmlns:inkscape="http://www.inkscape.org/namespaces/inkscape"
   viewBox="0 0 560 200"
   height="200"
   width="560"
   version="1.1"
   id="svg4190"
   inkscape:version="0.91 r13725"
   sodipodi:docname="chapelo.svg">
  <sodipodi:namedview
     pagecolor="#ffffff"
     bordercolor="#666666"
     borderopacity="1"
     objecttolerance="10"
     gridtolerance="10"
     guidetolerance="10"
     inkscape:pageopacity="0"
     inkscape:pageshadow="2"
     inkscape:window-width="3200"
     inkscape:window-height="1671"
     id="namedview4144"
     showgrid="false"
     inkscape:zoom="7.0050003"
     inkscape:cx="220.16115"
     inkscape:cy="192.95663"
     inkscape:window-x="0"
     inkscape:window-y="55"
     inkscape:window-maximized="1"
     inkscape:current-layer="g4208"
     showborder="true"
     showguides="true"
     inkscape:guide-bbox="true">
    <sodipodi:guide
       position="573.89363,296.688"
       orientation="0,1"
       id="guide4186"
       inkscape:label=""
       inkscape:color="rgb(0,0,255)" />
  </sodipodi:namedview>
  <metadata
     id="metadata4196">
    <rdf:RDF>
      <cc:Work
         rdf:about="">
        <dc:format>image/svg+xml</dc:format>
        <dc:type
           rdf:resource="http://purl.org/dc/dcmitype/StillImage" />
        <dc:title />
      </cc:Work>
    </rdf:RDF>
  </metadata>
  <defs
     id="defs4194" />
  <g
     id="g4208"
     transform="matrix(0.50062578,0,0,0.50062578,10.112328,-0.37516)">
    <circle
       cy="200"
       cx="220"
       id="circle4931"
       style="opacity:1;fill:#ffffff;fill-opacity:1;stroke:none;stroke-width:0.5;stroke-miterlimit:4;stroke-dasharray:none;stroke-opacity:1"
       r="199.75" />
    <circle
       style="opacity:1;fill:#072b07;fill-opacity:1;stroke:none;stroke-width:0.99874997;stroke-miterlimit:4;stroke-dasharray:none;stroke-opacity:1"
       id="path4913"
       cx="220"
       cy="200"
       r="190.21173" />
    <path
       inkscape:connector-curvature="0"
       style="fill:#ffffff;fill-opacity:1"
       d="m 220.96253,59.832123 c 30.06185,0.06583 59.84868,3.406131 73.85156,9.988281 14.42233,6.7793 16.32925,12.861712 14.96094,35.873046 -2.32164,39.04388 -8.94291,73.11947 -8.6183,110.77539 0.006,0.72535 1.66522,36.73852 4.46918,0.57821 33.11114,0 52.68311,7.79026 52.74677,18.10144 -10e-4,18.86185 -61.83083,42.50582 -138.10156,42.5059 -76.27073,-7e-5 -138.100512,-23.64405 -138.101564,-42.5059 0.0058,-10.14491 17.868374,-17.87007 49.650034,-17.87007 1.9862,16.65179 4.51368,26.11836 4.92614,-0.58692 0.56467,-36.56089 -4.52236,-70.83066 -6.42383,-108.37695 -1.36521,-26.957141 -0.005,-32.279768 15.14453,-38.820318 15.09868,-6.518425 45.43425,-9.727938 75.4961,-9.662109 z"
       id="path4200" />
    <circle
       style="opacity:1;fill:#ffffff;fill-opacity:1;stroke:none;stroke-width:0.49999997;stroke-miterlimit:4;stroke-dasharray:none;stroke-opacity:1"
       id="path4202"
       cx="263.27887"
       cy="310.8161"
       r="23.572962" />
    <circle
       r="4.967556"
       cy="326.05396"
       cx="283.08701"
       id="circle4204"
       style="opacity:1;fill:#ffffff;fill-opacity:1;stroke:none;stroke-width:0.5;stroke-miterlimit:4;stroke-dasharray:none;stroke-opacity:1" />
    <path
       id="path4182"
       d="m 569.09961,102.48633 c -6.30029,0 -10.69285,1.81331 -14.83399,4.17969 a 10.784151,10.784151 0 0 0 -3.41601,3.08398 l -18.28125,25.52344 a 10.784151,10.784151 0 0 0 -1.17774,10.42968 c -4.81789,2.76955 -9.28237,6.08193 -13.19335,10.09766 -12.73316,13.0742 -19.55079,32.13156 -19.55079,55.07813 0,22.56357 6.36006,41.0099 19.01172,53.41992 12.65166,12.41001 30.57284,17.89453 50.75196,17.89453 10.49792,0 18.6741,-1.52655 24.63086,-2.98047 4.36307,-1.06493 5.74902,-1.39456 7.0957,-1.73242 a 10.784151,10.784151 0 0 0 7.24805,2.81641 l 1.89648,0 a 10.784151,10.784151 0 0 0 10.77734,-10.44532 l 0.0117,-0.40039 c 2.05868,2.85625 4.38981,5.39711 7.13672,7.12305 7.65216,4.80802 15.91112,5.61914 23.02539,5.61914 7.37099,0 14.08924,-1.40485 19.5586,-5.20313 0.26031,-0.18078 0.4529,-0.41437 0.70312,-0.60351 0.63284,0.42318 1.21012,0.93417 1.87695,1.29492 6.25232,3.38241 13.39837,4.51172 21.49219,4.51172 7.27553,0 14.85793,-1.48161 20.78711,-5.9375 l 0,20.67578 a 10.784151,10.784151 0 0 0 -9.48633,10.69531 l 0,3.10352 a 10.784151,10.784151 0 0 0 10.78321,10.7832 l 63.80859,0 a 10.784151,10.784151 0 0 0 10.7832,-10.7832 l 0,-3.10352 a 10.784151,10.784151 0 0 0 -10.7832,-10.7832 l -11.46289,0 0,-15.29687 c 2.61976,0.39912 5.34382,0.64648 8.35937,0.64648 13.73547,0 26.44865,-4.29582 34.75586,-14.01758 1.90985,-2.23505 3.52308,-4.68741 4.91992,-7.30273 1.4464,2.15009 3.02062,4.22264 4.85743,6.11914 9.64105,9.95433 24.09577,15.20117 41.5039,15.20117 13.87399,0 25.03783,-3.38593 33.11719,-9.90039 a 10.784151,10.784151 0 0 0 10.44922,8.17578 l 51.21875,0 a 10.784151,10.784151 0 0 0 10.76172,-10.16992 c 9.57301,8.02758 22.61447,11.89453 37.59569,11.89453 17.186,0 31.5915,-4.63154 41.2168,-14.72266 9.6253,-10.09111 13.3711,-24.228 13.3711,-40.03515 0,-15.74395 -4.0832,-29.52267 -13.7734,-38.97657 -9.6902,-9.45389 -23.6028,-13.36914 -39.7793,-13.36914 -15.8026,0 -29.98548,4.32877 -40.1348,13.88086 -3.24015,3.04949 -5.9146,6.61539 -8.13281,10.52539 l 0,-59.15039 a 10.784151,10.784151 0 0 0 -10.7832,-10.7832 l -42.25,0 a 10.784151,10.784151 0 0 0 -10.78321,10.7832 l 0,3.10352 a 10.784151,10.784151 0 0 0 10.17383,10.76172 l 0,41.57617 c -1.44443,-2.58965 -3.15013,-5.0193 -5.19922,-7.22656 -8.72216,-9.39546 -21.89575,-13.47071 -37.24219,-13.47071 -13.95091,0 -27.69949,3.80785 -38.21093,12.91797 -2.91724,2.52833 -5.47817,5.49369 -7.71094,8.7793 -1.23023,-2.4646 -2.57442,-4.83522 -4.20508,-6.97461 -7.41946,-9.73414 -19.23297,-14.72266 -31.42578,-14.72266 -6.46806,0 -12.17391,1.57458 -17.03906,4.11328 a 10.784151,10.784151 0 0 0 -6.75977,-2.38867 l -40.87109,0 a 10.784151,10.784151 0 0 0 -10.7832,10.78321 l 0,2.79101 c -1.37355,-2.05157 -2.94697,-3.97194 -4.86133,-5.66797 -8.92577,-7.90777 -20.86707,-9.63086 -35.41211,-9.63086 -12.75784,0 -23.41567,1.56721 -32.18945,6.60743 -8.77379,5.04021 -14.63868,15.02144 -14.63868,25.38867 0,5.98602 1.54797,12.62342 6.33399,17.71289 0.49555,0.52697 1.11386,0.8996 1.6582,1.36719 -1.86896,1.35076 -3.61612,2.90466 -5.14453,4.69921 a 10.784151,10.784151 0 0 0 -10.76758,-10.59179 l -3.10351,0 a 10.784151,10.784151 0 0 0 -9.90235,6.51758 c -4.56286,10.59235 -9.43738,18.91601 -13.92969,23.92968 -4.4923,5.01368 -7.74664,6.45703 -11.0039,6.45703 -5.47472,0 -8.02022,-1.68602 -11.41016,-8.33984 -3.38993,-6.65382 -5.74414,-18.30026 -5.74414,-33.13086 l 0,-13.62305 c 0,-16.91148 2.48187,-28.32621 5.56055,-34.08593 3.07868,-5.75973 4.95184,-6.69532 10.38672,-6.69532 3.86293,0 6.9377,1.49067 11.28515,6.3711 4.34745,4.88043 9.01128,13.00209 13.53516,23.11914 a 10.784151,10.784151 0 0 0 9.84375,6.38086 l 3.10352,0 a 10.784151,10.784151 0 0 0 10.77539,-11.17969 l -1.37891,-37.42383 a 10.784151,10.784151 0 0 0 -10.77539,-10.38672 l -1.89844,0 a 10.784151,10.784151 0 0 0 -1.625,0.13672 10.784151,10.784151 0 0 0 -1.01367,-2.29297 L 590.51172,114.7793 c -1.80783,-3.13357 -4.41953,-6.54354 -8.31445,-8.9336 -3.89493,-2.39006 -8.54708,-3.35937 -13.09766,-3.35937 z m 140.64453,96.76953 a 10.784151,10.784151 0 0 0 4.90625,2.0957 l 0,32.60742 -0.57812,-0.0391 a 10.784151,10.784151 0 0 0 -1.83789,0.0469 l 0,-15.5 c 0,-6.95943 -0.67951,-13.4589 -2.49024,-19.21094 z m 195.21289,35.55664 0,0.76562 a 10.784151,10.784151 0 0 0 -0.8457,-0.38085 10.784151,10.784151 0 0 0 0.8457,-0.38477 z m -42.43359,1.16406 28.12304,0 a 10.784151,10.784151 0 0 0 -4.00781,5.74024 c -2.92667,10.24335 -6.61482,13.56445 -14.81055,13.56445 -5.39959,0 -5.24954,-0.37401 -6.80273,-3.48047 -1.29801,-2.59609 -2.18919,-8.5272 -2.50195,-15.82422 z"
       style="font-style:normal;font-variant:normal;font-weight:normal;font-stretch:normal;font-size:medium;line-height:125%;font-family:'Abril Fatface';-inkscape-font-specification:'Abril Fatface';letter-spacing:0px;word-spacing:0px;fill:#ffffff;fill-opacity:1;stroke:none;stroke-width:1px;stroke-linecap:butt;stroke-linejoin:miter;stroke-opacity:1"
       inkscape:connector-curvature="0" />
    <path
       d="m 1016.5245,235.71262 c 0,22.41921 -0.5174,32.59408 -10.3473,32.59408 -10.51982,0 -10.86473,-12.93416 -10.86473,-32.93899 l 0,-13.45152 c 0,-19.48746 0.51737,-32.93898 11.03713,-32.93898 9.6575,0 10.1749,13.45152 10.1749,32.0767 l 0,14.65871 z m -54.32347,-6.72576 c 0,26.90305 14.65871,42.42403 43.63117,42.42403 30.6971,0 43.8037,-15.69344 43.8037,-43.97613 0,-27.93777 -13.7964,-41.56175 -42.7689,-41.56175 -27.76534,0 -44.66597,14.83116 -44.66597,43.11385 z m -56.63544,-88.64208 0,3.1042 10.17487,0 0,123.13316 -9.48505,0 0,3.1042 51.21926,0 0,-3.1042 -9.65751,0 0,-126.23736 -42.25157,0 z m -87.37024,88.46963 c 0,25.00603 13.79643,42.59648 44.4935,42.59648 24.48867,0 33.45635,-11.38205 37.42282,-26.21322 l -3.10419,-0.51736 c -3.79402,13.27906 -12.41679,21.38447 -25.17849,21.38447 -16.72818,0 -20.34974,-13.79644 -20.34974,-34.14618 l 0,-6.72576 48.63242,0 c 1.03474,-25.69585 -10.51978,-39.31983 -37.59528,-39.31983 -23.9713,0 -44.32104,13.10661 -44.32104,42.9414 z m 33.45635,-7.07067 0,-8.45032 c 0,-18.28027 3.27665,-24.14376 9.31259,-24.14376 7.07068,0 8.45032,6.03594 8.45032,24.14376 l 0,8.45032 -17.76291,0 z m -80.69027,-28.45515 c 5.86349,0 7.93295,5.69103 7.93295,30.00724 l 0,8.96769 c 0,23.9713 -1.72455,34.14617 -10.17487,34.14617 -7.58804,0 -11.2096,-8.45032 -11.2096,-17.76291 l 0,-31.55934 c 0,-15.00362 6.38085,-23.79885 13.45152,-23.79885 z m -13.79643,-5.69103 -40.87193,0 0,3.1042 9.14013,0 0,116.92477 -9.48504,0 0,3.1042 63.8085,0 0,-3.1042 -22.24675,0 0,-44.66595 c 3.1042,5.34612 7.41558,8.45031 19.14255,8.45031 23.45394,0 35.52582,-13.10661 35.52582,-42.59648 0,-29.31742 -11.89943,-42.9414 -31.21443,-42.9414 -13.45152,0 -20.00483,6.72576 -23.79885,15.34853 l 0,-13.62398 z m -92.79179,41.56176 c -24.66112,0 -39.66474,3.96647 -39.66474,21.38447 0,17.24554 13.45152,20.8671 25.5234,20.8671 12.07188,0 17.07309,-4.48384 19.83237,-12.7617 2.06947,8.45032 9.82996,12.7617 23.79885,12.7617 14.83117,0 21.21202,-5.86348 22.07429,-26.55813 l -2.58683,-0.17245 c -0.86227,14.48625 -3.79402,17.7629 -6.89821,17.7629 -2.93175,0 -5.00121,-1.89701 -5.00121,-8.96768 l 0,-35.00845 c 0,-25.00603 -9.14014,-32.59407 -36.21564,-32.59407 -23.45393,0 -36.04318,6.72576 -36.04318,21.21202 0,8.45031 4.13893,14.31379 14.83117,14.31379 8.62277,0 15.17607,-5.34611 15.17607,-13.45152 0,-3.27665 -0.51736,-5.51857 -1.37964,-7.76049 l -4.31139,0 c -0.68982,-1.89701 -1.03473,-3.62157 -1.03473,-5.00121 0,-5.51857 5.00121,-6.89821 8.10541,-6.89821 6.89821,0 8.79522,5.69102 8.79522,27.59286 l 0,13.27907 -5.00121,0 z m -2.41437,35.35336 c -3.27665,0 -4.48384,-1.72456 -4.48384,-14.14135 l 0,-2.75928 c 0,-10.51978 3.44911,-15.69345 10.69223,-15.69345 l 1.20719,0 0,16.03836 c 0,11.03714 -4.13893,16.55572 -7.41558,16.55572 z M 571.3416,150.51965 c 14.83117,0 25.17849,14.65871 34.66354,35.87073 l 3.1042,0 -1.37965,-37.42283 -1.89701,0 c -1.20718,2.24192 -1.89701,3.44911 -4.65629,3.44911 -6.03594,0 -14.3138,-5.34612 -32.24916,-5.34612 -35.35336,0 -59.49712,22.07429 -59.49712,63.8085 0,41.21685 22.4192,60.53185 58.97975,60.53185 18.9701,0 28.45514,-5.34611 34.31863,-5.34611 2.75928,0 3.44911,1.20718 4.65629,3.4491 l 1.89701,0 1.20719,-38.45755 -3.1042,0 c -9.6575,22.4192 -20.8671,36.90546 -34.83599,36.90546 -18.79764,0 -27.93778,-20.5222 -27.93778,-52.25399 l 0,-13.62398 c 0,-35.69827 9.31259,-51.56417 26.73059,-51.56417 z m -30.00724,-8.96768 1.37964,1.72455 25.17849,-11.72697 24.48867,11.72697 1.5521,-1.72455 -12.7617,-21.38447 c -2.58683,-4.48384 -5.69103,-6.89822 -12.07188,-6.89822 -3.1042,0 -7.07067,1.37964 -9.48505,2.75929 l -18.28027,25.5234 z"
       style="font-style:normal;font-variant:normal;font-weight:normal;font-stretch:normal;font-size:medium;line-height:125%;font-family:'Abril Fatface';-inkscape-font-specification:'Abril Fatface';letter-spacing:0px;word-spacing:0px;fill:#072b07;fill-opacity:1;stroke:none;stroke-width:1px;stroke-linecap:butt;stroke-linejoin:miter;stroke-opacity:1"
       id="path4150"
       inkscape:connector-curvature="0" />
  </g>
</svg>
